# xmcd
#
# Track frame offsets:
#	150
#	16578
#	32003
#	47484
#	64204
#	81621
#	96556
#	115025
#	132247
#	148563
#	164011
#	184528
#	199840
#	214531
#	227641
#	243755
#	261613
#	272433
#	285474
#	309662
#
# Disc length: 4366 seconds
#
# Revision: 1
# Processed by: cddbd v1.5.1PL0 Copyright (c) Steve Scherf et al.
# Submitted via: audiograbber 1.83.01
#
DISCID=1e110c14
DTITLE=Various Artist - Дворовая горячая двадцатка 7. (2004)
DYEAR=1900
DGENRE=
TTITLE0=Аляска. - Достали.
TTITLE1=Горячие головы. - Выходи за меня замуж.
TTITLE2=Диамант. - Радость моя.
TTITLE3=Андрей Косинский. - Папа.
TTITLE4=Тайна Икс. - День за днем.
TTITLE5=Николай Бурлак. - Луна.
TTITLE6=Подруги. - Не плачь.
TTITLE7=Форс. - Ты одна. (Rmx)
TTITLE8=Комиссар. - Твой поцелуй.
TTITLE9=В. Шиленский and Культовары. - Босса-нова.
TTITLE10=Vasюта and Сладкий сон. - В 10 у Макдональдса.
TTITLE11=Таня Тишинская. - Угостите даму сигоретой.
TTITLE12=Волшебники двора. - Рыбка золотая.
TTITLE13=Виктор Петлюра. - Цыганская.
TTITLE14=Ирина Ежова. - Корабли.
TTITLE15=Пахом. - К морю.
TTITLE16=Бура. - Дачный сезон.
TTITLE17=Валдай. - Ахай, не ахай.
TTITLE18=Абдула. - Серые глаза.
TTITLE19=Валера Зыкин. - Ветка сирени.
EXTD=
EXTT0=
EXTT1=
EXTT2=
EXTT3=
EXTT4=
EXTT5=
EXTT6=
EXTT7=
EXTT8=
EXTT9=
EXTT10=
EXTT11=
EXTT12=
EXTT13=
EXTT14=
EXTT15=
EXTT16=
EXTT17=
EXTT18=
EXTT19=
PLAYORDER=
